<svg xmlns="http://www.w3.org/2000/svg" viewBox="0 0 1560 200" enable-background="new 0 0 1560 200">
<g class="opencongress_logo">
    <g class="logomark">
        <path fill="#3C4655" d="M640.8 173.5l-82.4-38.4-82.3 38.4V190h164.7zM617 129.4c-.6-33.8-18.3-65-44.9-82.5V42c0-6-3.8-11-9.1-12.9 1.5-1.4 2.4-3.9 2.4-7.8 0-7-5.3-12.7-6.9-12.7s-6.9 5.7-6.9 12.7c0 3.9.8 6.4 2.3 7.8-5.3 1.8-9.2 6.9-9.2 12.9v5c-26.4 17.5-44.2 48.7-44.8 82.5l-7.3 3.4v22l65.9-30.8 65.9 30.8v-22l-7.4-3.5z"/>
        <path fill="#fff" d="M558.4 71.4l6.4 11.5 12.9 2.4-9 9.6 1.6 13-11.9-5.6-11.8 5.6 1.6-13-9-9.6 12.9-2.4z"/>
    </g>
    <path fill="#3C4655" d="M66.8 174.4c-8.7 0-16.9-1.7-24.4-5s-14.1-7.9-19.6-13.6c-5.6-5.8-9.9-12.5-13.1-20.3-3.1-7.8-4.7-16.1-4.7-24.9 0-8.8 1.6-17.1 4.7-24.8 3.2-7.7 7.5-14.4 13-20.2 5.5-5.8 12.1-10.3 19.6-13.6 7.6-3.3 15.7-5 24.5-5s16.9 1.7 24.5 5c7.6 3.3 14.2 7.9 19.7 13.6 5.6 5.8 9.9 12.5 13.1 20.2 3.2 7.7 4.7 16 4.7 24.8 0 8.9-1.6 17.2-4.7 24.9-3.2 7.8-7.5 14.5-13.1 20.3-5.6 5.8-12.2 10.3-19.7 13.6-7.6 3.3-15.7 5-24.5 5zm0-16.4c6.7 0 12.7-1.3 18.1-3.8 5.4-2.5 10-6 13.8-10.4 3.8-4.4 6.8-9.4 8.8-15.2 2.1-5.8 3.1-11.8 3.1-18.3s-1-12.7-3.1-18.5c-2.1-5.8-5-10.8-8.8-15.2-3.8-4.4-8.4-7.8-13.8-10.3-5.4-2.5-11.4-3.7-18.1-3.7-6.7 0-12.7 1.2-18 3.7-5.3 2.5-9.9 5.9-13.7 10.3-3.8 4.4-6.8 9.4-8.8 15.2-2.1 5.8-3.1 11.9-3.1 18.5 0 6.4 1 12.5 3.1 18.3 2.1 5.8 5 10.8 8.8 15.2 3.8 4.4 8.4 7.8 13.7 10.4 5.4 2.5 11.4 3.8 18 3.8zM145 50h38.4c8.2 0 15.1 1.2 20.5 3.5s9.7 5.2 12.9 8.7c3.2 3.5 5.5 7.5 6.7 11.8 1.3 4.4 1.9 8.6 1.9 12.7 0 6.1-1 11.4-3.1 16s-4.9 8.5-8.5 11.5-8 5.4-13 7c-5 1.6-10.5 2.4-16.5 2.4h-22v47.6H145V50zm39.1 58.7c7.5 0 13.3-1.9 17.4-5.7 4.1-3.8 6.1-9.1 6.1-15.9 0-6.9-2.1-12.3-6.3-16.3-4.2-3.9-9.9-5.9-17.2-5.9h-21.8v43.8h21.8zM242 50h76.4v15.5h-58.9v35.3h44.4v15.6h-44.4v39.3h63.3v15.6H242V50zM337 50h17.6l66.2 94.7V50h17.1v121.3h-17.5L354 76.4v94.9h-17V50zM778.1 150c-1.3 2.2-3.4 4.7-6.2 7.5-2.8 2.8-6.2 5.4-10.2 7.9-4 2.5-8.6 4.6-13.8 6.3-5.2 1.7-11 2.5-17.3 2.5-9 0-17.2-1.6-24.5-4.7-7.4-3.2-13.8-7.5-19.1-13.2-5.3-5.6-9.5-12.3-12.5-20-3-7.7-4.5-16.1-4.5-25.2 0-8.8 1.5-17.2 4.5-24.9 3-7.8 7.1-14.5 12.5-20.4 5.3-5.8 11.7-10.4 19.2-13.7 7.5-3.3 15.7-5 24.8-5 6.4 0 12.2.8 17.3 2.4 5.1 1.6 9.5 3.5 13.4 5.9 3.8 2.4 7.1 4.9 9.8 7.7 2.7 2.8 4.9 5.5 6.6 8l-12.4 10.5c-1.5-2.1-3.2-4.2-5.2-6.5-2-2.2-4.4-4.3-7.2-6.1-2.8-1.8-6-3.3-9.6-4.5-3.6-1.2-7.8-1.8-12.5-1.8-6.7 0-12.6 1.3-17.9 3.8-5.3 2.5-9.8 6-13.5 10.4-3.7 4.4-6.5 9.5-8.5 15.3-1.9 5.8-2.9 12-2.9 18.5s1 12.7 3 18.5c2 5.8 4.8 10.8 8.5 15 3.6 4.2 8.1 7.6 13.3 10 5.2 2.4 11 3.6 17.5 3.6 5.5 0 10.2-.7 14.1-2.1 3.9-1.4 7.3-3.1 10-5s5-3.9 6.7-5.9c1.8-2 3.2-3.7 4.5-5l12.1 10.2zM852.8 174.4c-8.7 0-16.9-1.7-24.4-5s-14.1-7.9-19.6-13.6c-5.6-5.8-9.9-12.5-13.1-20.3-3.2-7.8-4.7-16.1-4.7-24.9 0-8.8 1.6-17.1 4.7-24.8 3.2-7.7 7.5-14.4 13-20.2 5.5-5.8 12.1-10.3 19.6-13.6 7.6-3.3 15.7-5 24.5-5 8.7 0 16.9 1.7 24.5 5 7.6 3.3 14.2 7.9 19.7 13.6 5.6 5.8 9.9 12.5 13.1 20.2 3.2 7.7 4.7 16 4.7 24.8 0 8.9-1.6 17.2-4.7 24.9-3.2 7.8-7.5 14.5-13.1 20.3-5.6 5.8-12.2 10.3-19.7 13.6-7.6 3.3-15.7 5-24.5 5zm0-16.4c6.7 0 12.7-1.3 18.1-3.8 5.4-2.5 10-6 13.8-10.4 3.8-4.4 6.8-9.4 8.8-15.2 2.1-5.8 3.1-11.8 3.1-18.3s-1-12.7-3.1-18.5c-2.1-5.8-5-10.8-8.8-15.2-3.8-4.4-8.4-7.8-13.8-10.3-5.4-2.5-11.4-3.7-18.1-3.7-6.7 0-12.7 1.2-18 3.7-5.3 2.5-9.9 5.9-13.7 10.3-3.8 4.4-6.8 9.4-8.8 15.2-2.1 5.8-3.1 11.9-3.1 18.5 0 6.4 1 12.5 3.1 18.3 2.1 5.8 5 10.8 8.8 15.2 3.8 4.4 8.4 7.8 13.7 10.4 5.4 2.5 11.4 3.8 18 3.8zM931 50h17.6l66.2 94.7V50h17.1v121.3h-17.5L948 76.4v94.9h-17V50zM1114.9 109.6h42.5V158c-2.3 2.1-4.9 4.1-7.9 6-3 1.9-6.4 3.7-10.4 5.2-3.9 1.5-8.3 2.7-13.2 3.6-4.9.9-10.3 1.4-16.4 1.4-9.5 0-18-1.6-25.5-4.8-7.6-3.2-14.1-7.6-19.5-13.3-5.4-5.6-9.5-12.3-12.4-20-2.8-7.7-4.3-16.1-4.3-25.2 0-8.8 1.5-17.2 4.5-24.9 3-7.8 7.1-14.5 12.5-20.3 5.3-5.8 11.7-10.3 19.2-13.6 7.5-3.3 15.7-5 24.8-5 6.4 0 12.2.8 17.3 2.3 5.1 1.5 9.5 3.5 13.4 5.8 3.8 2.4 7.1 4.9 9.7 7.7 2.7 2.8 4.9 5.5 6.7 8l-12.4 10.5c-1.5-2.1-3.2-4.2-5.3-6.5-2.1-2.2-4.5-4.3-7.3-6.1-2.8-1.8-6-3.3-9.5-4.5-3.6-1.2-7.7-1.8-12.3-1.8-6.7 0-12.7 1.3-18 3.8-5.3 2.5-9.9 6-13.5 10.4-3.7 4.4-6.5 9.5-8.5 15.4s-3 12.1-3 18.6c0 7 1.1 13.5 3.3 19.3 2.2 5.8 5.2 10.8 9.2 15 3.9 4.2 8.6 7.5 13.9 9.8 5.3 2.4 11.2 3.5 17.6 3.5 7 0 13-.8 17.9-2.4 4.9-1.6 9.1-3.8 12.6-6.5v-24.7h-25.8v-15.1zM1176 50h38.7c7.8 0 14.3 1.1 19.6 3.2 5.3 2.1 9.7 4.9 13 8.2 3.3 3.3 5.8 7.1 7.3 11.4 1.5 4.2 2.3 8.5 2.3 12.9 0 7.8-1.8 14.6-5.5 20.5-3.6 5.9-9.3 10.4-16.9 13.3l28.4 51.8h-19.6l-26-49.6h-24.4v49.6H1176V50zm40.2 56.9c7.6 0 13.4-1.9 17.2-5.6 3.8-3.8 5.7-8.8 5.7-15.1 0-6.7-2.1-11.8-6.2-15.5-4.1-3.7-9.8-5.5-17.1-5.5h-22.9V107h23.3zM1279 50h76.4v15.5h-58.9v35.3h44.4v15.6h-44.4v39.3h63.3v15.6H1279V50zM1381.3 141.8c1.7 1.9 3.6 3.9 5.7 5.9 2.1 2 4.5 3.8 7.2 5.4 2.7 1.6 5.6 2.8 8.9 3.8 3.3 1 6.8 1.5 10.7 1.5 8 0 14.2-1.8 18.7-5.5 4.5-3.6 6.7-8.5 6.7-14.7 0-6.7-2.5-11.7-7.6-15-5.1-3.3-12.4-6-22-8.1-5.2-1.1-9.9-2.6-14.2-4.5-4.2-1.9-7.9-4.4-11-7.3-3.1-2.9-5.5-6.3-7.2-10.1-1.7-3.8-2.5-8.2-2.5-13 0-4.5.8-8.7 2.5-12.7s4.2-7.5 7.6-10.5c3.4-3 7.6-5.5 12.7-7.3 5.1-1.8 11-2.7 17.6-2.7 5.9 0 11.1.6 15.4 1.9 4.3 1.3 8 2.8 11 4.6 3 1.8 5.5 3.7 7.3 5.6 1.8 1.9 3.2 3.5 4.2 4.7l-11.6 10.7c-.7-.8-1.8-2-3.3-3.4-1.5-1.4-3.3-2.8-5.5-4.1-2.2-1.3-4.9-2.5-7.8-3.4-3-.9-6.4-1.4-10.3-1.4-3.9 0-7.2.5-10 1.5s-5.1 2.4-6.9 4c-1.8 1.6-3.2 3.5-4 5.5-.9 2.1-1.3 4.1-1.3 6.2 0 3 .6 5.6 1.9 7.7 1.3 2.1 3.1 4 5.5 5.6 2.4 1.6 5.4 3 9 4.2 3.6 1.2 7.7 2.3 12.3 3.4 4.5 1.1 8.9 2.5 13.2 4.3 4.3 1.8 8.2 4.1 11.5 7.1 3.4 3 6.1 6.6 8.1 10.9 2 4.3 3 9.5 3 15.7 0 5.2-1.1 10-3.3 14.4-2.2 4.4-5.2 8.2-9 11.4-3.8 3.2-8.3 5.7-13.5 7.5-5.2 1.8-10.9 2.6-16.9 2.6-5.7 0-10.9-.7-15.5-2-4.7-1.3-8.9-3-12.7-5.1-3.8-2.1-7.2-4.3-10-6.8s-5.2-4.9-7-7.4l12.4-11.1zM1480.2 141.8c1.7 1.9 3.6 3.9 5.7 5.9 2.1 2 4.5 3.8 7.2 5.4 2.7 1.6 5.6 2.8 8.9 3.8 3.3 1 6.8 1.5 10.7 1.5 8 0 14.2-1.8 18.7-5.5 4.5-3.6 6.7-8.5 6.7-14.7 0-6.7-2.5-11.7-7.6-15-5.1-3.3-12.4-6-22-8.1-5.2-1.1-9.9-2.6-14.2-4.5-4.2-1.9-7.9-4.4-11-7.3-3.1-2.9-5.5-6.3-7.2-10.1-1.7-3.8-2.5-8.2-2.5-13 0-4.5.8-8.7 2.5-12.7s4.2-7.5 7.6-10.5c3.4-3 7.6-5.5 12.7-7.3 5.1-1.8 11-2.7 17.6-2.7 5.9 0 11.1.6 15.4 1.9 4.3 1.3 8 2.8 11 4.6 3 1.8 5.5 3.7 7.3 5.6 1.8 1.9 3.2 3.5 4.2 4.7l-11.6 10.7c-.7-.8-1.8-2-3.3-3.4-1.5-1.4-3.3-2.8-5.5-4.1-2.2-1.3-4.8-2.5-7.8-3.4-3-.9-6.4-1.4-10.3-1.4-3.9 0-7.2.5-10 1.5s-5.1 2.4-6.9 4c-1.8 1.6-3.2 3.5-4 5.5-.9 2.1-1.3 4.1-1.3 6.2 0 3 .6 5.6 1.9 7.7 1.3 2.1 3.1 4 5.5 5.6 2.4 1.6 5.4 3 9 4.2 3.6 1.2 7.7 2.3 12.3 3.4 4.5 1.1 8.9 2.5 13.2 4.3 4.3 1.8 8.2 4.1 11.5 7.1 3.4 3 6.1 6.6 8.1 10.9 2 4.3 3 9.5 3 15.7 0 5.2-1.1 10-3.3 14.4-2.2 4.4-5.2 8.2-9 11.4-3.8 3.2-8.3 5.7-13.5 7.5-5.2 1.8-10.9 2.6-16.9 2.6-5.7 0-10.9-.7-15.5-2-4.7-1.3-8.9-3-12.7-5.1-3.8-2.1-7.2-4.3-10-6.8s-5.2-4.9-7-7.4l12.4-11.1z"/>
</g>
</svg>