<svg xmlns="http://www.w3.org/2000/svg" viewBox="0 0 765 150" aria-labelledby="title" aria-describedby="desc" role="img">
    <title>OpenCongress Logo</title>
    <desc>The logotype for OpenCongress is set in the sans serif Effra typeface, while the logomark is evocative of the United States Capitol.</desc>

    <style>
        svg * {
            transition: fill .1s ease-out, opacity .1s ease-out;
        }
        @media all and (min-width: 175px) {
            .logo { 
                opacity: 1; 
            }
            .logomark {
                opacity: 0;
            }
        }

        @media all and (max-width: 175px) {
            .logo { 
                opacity: 0; 
            }
            .logomark {
                opacity: 1;
            }
        }
    </style>

    <g class="logo">
        <path fill="#3C4655" d="M312.3 112.4l-40.5-18.9-40.5 18.9v8.1h81zM300.5 90.8c-.3-16.6-9-31.9-22.1-40.5v-2.4c0-2.9-1.9-5.4-4.5-6.3.7-.7 1.2-1.9 1.2-3.8 0-3.4-2.6-6.2-3.4-6.2s-3.4 2.8-3.4 6.2c0 1.9.4 3.1 1.1 3.8-2.6.9-4.5 3.4-4.5 6.3v2.4c-12.9 8.6-21.7 23.9-22 40.5l-3.6 1.7v10.8l32.4-15.1 32.4 15.1V92.5l-3.6-1.7z"/>
        <path fill="#fff" d="M271.8 62.2l3.1 5.7 6.3 1.2-4.4 4.7.8 6.4-5.8-2.8-5.8 2.8.8-6.4-4.4-4.7 6.3-1.2z"/>
        <path fill="#3C4655" d="M30.4 112.8c-4.3 0-8.3-.8-12-2.5-3.7-1.6-6.9-3.9-9.6-6.7-2.7-2.8-4.9-6.1-6.4-10C.8 89.9 0 85.8 0 81.5s.8-8.4 2.3-12.2c1.5-3.8 3.7-7.1 6.4-9.9 2.7-2.8 5.9-5.1 9.6-6.7 3.7-1.6 7.7-2.5 12-2.5s8.3.8 12 2.5c3.7 1.6 7 3.9 9.7 6.7 2.7 2.8 4.9 6.1 6.4 9.9 1.5 3.8 2.3 7.8 2.3 12.2 0 4.3-.8 8.4-2.3 12.2-1.5 3.8-3.7 7.1-6.4 10-2.7 2.8-6 5.1-9.7 6.7-3.6 1.6-7.7 2.4-11.9 2.4zm0-8c3.3 0 6.2-.6 8.9-1.9 2.6-1.3 4.9-2.9 6.8-5.1 1.9-2.1 3.3-4.6 4.3-7.5 1-2.8 1.5-5.8 1.5-9s-.5-6.2-1.5-9.1c-1-2.8-2.5-5.3-4.3-7.5-1.9-2.1-4.1-3.8-6.8-5-2.7-1.2-5.6-1.8-8.9-1.8-3.3 0-6.2.6-8.8 1.8-2.6 1.2-4.9 2.9-6.7 5-1.9 2.1-3.3 4.6-4.3 7.5-1 2.8-1.5 5.8-1.5 9.1 0 3.2.5 6.1 1.5 9 1 2.8 2.5 5.3 4.3 7.5 1.9 2.1 4.1 3.8 6.7 5.1 2.5 1.3 5.5 1.9 8.8 1.9zM68.8 51.8h18.8c4 0 7.4.6 10 1.7 2.6 1.1 4.8 2.6 6.3 4.3 1.6 1.7 2.7 3.7 3.3 5.8.6 2.1.9 4.2.9 6.3 0 3-.5 5.6-1.5 7.9-1 2.3-2.4 4.2-4.2 5.7-1.8 1.5-3.9 2.7-6.4 3.4-2.5.8-5.2 1.2-8.1 1.2H77.2v23.4h-8.5V51.8zM88 80.6c3.7 0 6.5-.9 8.5-2.8s3-4.5 3-7.8c0-3.4-1-6.1-3.1-8-2.1-1.9-4.9-2.9-8.4-2.9H77.2v21.5H88zM116.4 51.8h37.5v7.6H125v17.3h21.8v7.7H125v19.3h31v7.7h-39.7V51.8zM163.1 51.8h8.7l32.5 46.5V51.8h8.4v59.6H204l-32.6-46.6v46.6H163V51.8zM379.7 100.9c-.7 1.1-1.7 2.3-3 3.7-1.4 1.4-3 2.7-5 3.9-2 1.2-4.2 2.2-6.8 3.1-2.6.8-5.4 1.3-8.5 1.3-4.4 0-8.4-.8-12.1-2.3-3.6-1.5-6.8-3.7-9.4-6.5-2.6-2.8-4.7-6-6.1-9.8-1.5-3.8-2.2-7.9-2.2-12.4 0-4.3.7-8.4 2.2-12.2 1.5-3.8 3.5-7.1 6.1-10 2.6-2.9 5.8-5.1 9.4-6.7 3.7-1.6 7.7-2.5 12.2-2.5 3.2 0 6 .4 8.5 1.2 2.5.8 4.7 1.7 6.6 2.9 1.9 1.2 3.5 2.4 4.8 3.8 1.3 1.4 2.4 2.7 3.3 3.9l-6.1 5.2c-.7-1-1.6-2.1-2.5-3.2-1-1.1-2.2-2.1-3.5-3-1.4-.9-2.9-1.6-4.7-2.2-1.8-.6-3.8-.9-6.2-.9-3.3 0-6.2.6-8.8 1.9-2.6 1.3-4.8 2.9-6.6 5.1-1.8 2.1-3.2 4.6-4.2 7.5-1 2.9-1.4 5.9-1.4 9.1 0 3.2.5 6.2 1.5 9.1 1 2.8 2.4 5.3 4.2 7.4 1.8 2.1 4 3.7 6.5 4.9 2.6 1.2 5.4 1.8 8.6 1.8 2.7 0 5-.3 6.9-1 1.9-.7 3.6-1.5 4.9-2.5 1.3-1 2.4-1.9 3.3-2.9.9-1 1.6-1.8 2.2-2.5l5.9 4.8zM416.4 112.8c-4.3 0-8.3-.8-12-2.5-3.7-1.6-6.9-3.9-9.6-6.7-2.7-2.8-4.9-6.1-6.4-10-1.5-3.8-2.3-7.9-2.3-12.2 0-4.3.8-8.4 2.3-12.2 1.5-3.8 3.7-7.1 6.4-9.9 2.7-2.8 5.9-5.1 9.6-6.7 3.7-1.6 7.7-2.5 12-2.5s8.3.8 12 2.5c3.7 1.6 7 3.9 9.7 6.7 2.7 2.8 4.9 6.1 6.4 9.9 1.5 3.8 2.3 7.8 2.3 12.2 0 4.3-.8 8.4-2.3 12.2-1.5 3.8-3.7 7.1-6.4 10-2.7 2.8-6 5.1-9.7 6.7-3.7 1.7-7.7 2.5-12 2.5zm0-8c3.3 0 6.2-.6 8.9-1.9 2.6-1.3 4.9-2.9 6.8-5.1 1.9-2.1 3.3-4.6 4.3-7.5 1-2.8 1.5-5.8 1.5-9s-.5-6.2-1.5-9.1c-1-2.8-2.5-5.3-4.3-7.5-1.9-2.1-4.1-3.8-6.8-5-2.7-1.2-5.6-1.8-8.9-1.8-3.3 0-6.2.6-8.8 1.8-2.6 1.2-4.9 2.9-6.7 5-1.9 2.1-3.3 4.6-4.3 7.5-1 2.8-1.5 5.8-1.5 9.1 0 3.2.5 6.1 1.5 9 1 2.8 2.5 5.3 4.3 7.5 1.9 2.1 4.1 3.8 6.7 5.1 2.6 1.3 5.5 1.9 8.8 1.9zM454.8 51.8h8.7L496 98.3V51.8h8.4v59.6h-8.6l-32.6-46.6v46.6h-8.4V51.8zM545.1 81H566v23.8c-1.1 1-2.4 2-3.9 2.9-1.5 1-3.2 1.8-5.1 2.5-1.9.7-4.1 1.3-6.5 1.8-2.4.4-5.1.7-8 .7-4.6 0-8.8-.8-12.5-2.4-3.7-1.6-6.9-3.8-9.6-6.5-2.6-2.8-4.7-6-6.1-9.8-1.4-3.8-2.1-7.9-2.1-12.4 0-4.3.7-8.4 2.2-12.2 1.5-3.8 3.5-7.1 6.1-10 2.6-2.8 5.8-5.1 9.4-6.7 3.7-1.6 7.7-2.5 12.2-2.5 3.2 0 6 .4 8.5 1.1 2.5.7 4.7 1.7 6.6 2.9 1.9 1.2 3.5 2.4 4.8 3.8 1.3 1.4 2.4 2.7 3.3 3.9l-6.1 5.2c-.7-1-1.6-2.1-2.6-3.2s-2.2-2.1-3.6-3c-1.4-.9-2.9-1.6-4.7-2.2-1.8-.6-3.8-.9-6-.9-3.3 0-6.2.6-8.8 1.9-2.6 1.3-4.8 2.9-6.7 5.1-1.8 2.1-3.2 4.7-4.2 7.5-1 2.9-1.5 5.9-1.5 9.2 0 3.5.5 6.6 1.6 9.5 1.1 2.9 2.6 5.3 4.5 7.4 1.9 2.1 4.2 3.7 6.8 4.8 2.6 1.2 5.5 1.7 8.7 1.7 3.5 0 6.4-.4 8.8-1.2 2.4-.8 4.5-1.8 6.2-3.2v-12H545V81zM575.1 51.8h19c3.8 0 7 .5 9.6 1.6 2.6 1 4.7 2.4 6.4 4 1.6 1.6 2.8 3.5 3.6 5.6.7 2.1 1.1 4.2 1.1 6.3 0 3.8-.9 7.2-2.7 10.1-1.8 2.9-4.6 5.1-8.3 6.5l13.9 25.5h-9.6L595.3 87h-12v24.4H575V51.8zm19.7 27.9c3.8 0 6.6-.9 8.4-2.8 1.9-1.8 2.8-4.3 2.8-7.4 0-3.3-1-5.8-3-7.6-2-1.8-4.8-2.7-8.4-2.7h-11.3v20.5h11.5zM625.7 51.8h37.5v7.6h-28.9v17.3H656v7.7h-21.8v19.3h31.1v7.7h-39.7V51.8zM675.9 96.9c.8 1 1.8 1.9 2.8 2.9 1 1 2.2 1.9 3.5 2.6 1.3.8 2.8 1.4 4.4 1.9 1.6.5 3.4.7 5.3.7 3.9 0 7-.9 9.2-2.7 2.2-1.8 3.3-4.2 3.3-7.2 0-3.3-1.3-5.7-3.8-7.4-2.5-1.6-6.1-3-10.8-4-2.6-.5-4.9-1.3-7-2.2-2.1-1-3.9-2.1-5.4-3.6-1.5-1.4-2.7-3.1-3.5-5-.8-1.9-1.3-4-1.3-6.4 0-2.2.4-4.3 1.3-6.3.8-2 2.1-3.7 3.8-5.2 1.7-1.5 3.8-2.7 6.3-3.6 2.5-.9 5.4-1.3 8.7-1.3 2.9 0 5.4.3 7.5.9 2.1.6 3.9 1.4 5.4 2.3 1.5.9 2.7 1.8 3.6 2.8.9 1 1.6 1.7 2.1 2.3l-5.7 5.3c-.4-.4-.9-1-1.6-1.7-.7-.7-1.6-1.4-2.7-2-1.1-.7-2.4-1.2-3.8-1.7-1.5-.4-3.1-.7-5-.7s-3.5.3-4.9.8c-1.4.5-2.5 1.2-3.4 2-.9.8-1.5 1.7-2 2.7-.4 1-.6 2-.6 3 0 1.5.3 2.8.9 3.8.6 1 1.5 2 2.7 2.8 1.2.8 2.7 1.5 4.4 2.1 1.8.6 3.8 1.1 6 1.7 2.2.5 4.4 1.2 6.5 2.1 2.1.9 4 2 5.7 3.5 1.7 1.5 3 3.2 4 5.4 1 2.1 1.5 4.7 1.5 7.7 0 2.6-.5 4.9-1.6 7.1-1.1 2.1-2.5 4-4.4 5.6-1.9 1.6-4.1 2.8-6.7 3.7-2.6.9-5.3 1.3-8.3 1.3-2.8 0-5.3-.3-7.6-1s-4.4-1.5-6.3-2.5c-1.9-1-3.5-2.1-4.9-3.3-1.4-1.2-2.5-2.4-3.4-3.6l5.8-5.6zM724.5 96.9c.8 1 1.8 1.9 2.8 2.9 1 1 2.2 1.9 3.5 2.6 1.3.8 2.8 1.4 4.4 1.9 1.6.5 3.4.7 5.3.7 3.9 0 7-.9 9.2-2.7 2.2-1.8 3.3-4.2 3.3-7.2 0-3.3-1.3-5.7-3.8-7.4-2.5-1.6-6.1-3-10.8-4-2.6-.5-4.9-1.3-7-2.2-2.1-1-3.9-2.1-5.4-3.6-1.5-1.4-2.7-3.1-3.5-5-.8-1.9-1.3-4-1.3-6.4 0-2.2.4-4.3 1.3-6.3.8-2 2.1-3.7 3.8-5.2 1.7-1.5 3.8-2.7 6.3-3.6 2.5-.9 5.4-1.3 8.7-1.3 2.9 0 5.4.3 7.5.9 2.1.6 3.9 1.4 5.4 2.3 1.5.9 2.7 1.8 3.6 2.8.9 1 1.6 1.7 2.1 2.3l-5.7 5.3c-.4-.4-.9-1-1.6-1.7-.7-.7-1.6-1.4-2.7-2-1.1-.7-2.4-1.2-3.8-1.7-1.5-.4-3.1-.7-5-.7s-3.5.3-4.9.8c-1.4.5-2.5 1.2-3.4 2-.9.8-1.5 1.7-2 2.7-.4 1-.6 2-.6 3 0 1.5.3 2.8.9 3.8.6 1 1.5 2 2.7 2.8 1.2.8 2.7 1.5 4.4 2.1 1.8.6 3.8 1.1 6 1.7 2.2.5 4.4 1.2 6.5 2.1 2.1.9 4 2 5.7 3.5 1.7 1.5 3 3.2 4 5.4 1 2.1 1.5 4.7 1.5 7.7 0 2.6-.5 4.9-1.6 7.1-1.1 2.1-2.5 4-4.4 5.6-1.9 1.6-4.1 2.8-6.7 3.7-2.6.9-5.3 1.3-8.3 1.3-2.8 0-5.3-.3-7.6-1s-4.4-1.5-6.3-2.5c-1.9-1-3.5-2.1-4.9-3.3-1.4-1.2-2.5-2.4-3.4-3.6l5.8-5.6z"/>
    </g>
    <g class="logomark">
        <path fill="#3C4655" d="M135.4 137l-67.5-31.7L.4 137v13h135z"/>
        <path fill="#3B4554" d="M117.3 100.7c-.5-27.8-15.9-53.5-36.9-67.9v-4c0-4.9-3.7-9.1-8.1-10.6C73.5 17 74 15 74 11.8 74 6 69.5 1.3 68.2 1.3c-1.4 0-5.8 4.7-5.8 10.5 0 3.2.6 5.3 1.8 6.4-4.4 1.5-7.7 5.7-7.7 10.6v4c-21 14.4-36.5 40.1-36.9 67.9l-6.1 2.8v18.1l55-25.3 55 25.3v-18.1l-6.2-2.8z"/>
        <path fill="#fff" d="M67.9 52.8l5.2 9.5 10.7 2-7.4 7.9L77.7 83l-9.8-4.7-9.7 4.7 1.3-10.8-7.4-7.9 10.6-2z"/>
    </g>

</svg>